<?xml version="1.0" encoding="UTF-8"?>
<svg width="677px" height="276px" viewBox="0 0 677 276" version="1.1" xmlns="http://www.w3.org/2000/svg" xmlns:xlink="http://www.w3.org/1999/xlink">
    <!-- Generator: Sketch 50.2 (55047) - http://www.bohemiancoding.com/sketch -->
    <title>AML</title>
    <desc>Created with Sketch.</desc>
    <defs></defs>
    <g id="Page-1" stroke="none" stroke-width="1" fill="none" fill-rule="evenodd">
        <g id="AML" transform="translate(-33.460938, -374.101562)">
            <rect id="Rectangle" x="0" y="0" width="711.359375" height="1024"></rect>
            <path d="M695.473684,623.763158 L556.526316,623.763158 L556.526316,387.618421 C556.526316,381.008772 550.842105,375 543.263158,375 C535.684211,375 530,380.407895 530,387.618421 L530,636.381579 C530,642.991228 535.684211,649 543.263158,649 L710,649 L695.473684,623.763158 Z" id="Shape" fill="#72CEED" fill-rule="nonzero"></path>
            <path d="M423,387.035011 C423,380.415755 417.319521,375 409.745549,375 L408.48322,375 L407.220892,375 C402.171577,375 397.753427,377.407002 395.859934,381.017505 L309.39042,525.437637 L222.920906,381.017505 C221.027413,377.407002 216.609262,375 211.559948,375 C207.141797,375 202.723647,377.407002 200.19899,381.017505 L198.936661,383.424508 C197.043168,386.43326 198.305497,390.645514 200.19899,393.654267 L296.135969,554.321663 L296.135969,554.321663 C298.029462,557.330416 301.185283,562.746171 308.759255,562.746171 L309.39042,562.746171 L310.021584,562.746171 C316.964392,562.746171 320.120213,557.330416 322.644871,554.321663 L396.491098,431.564551 L396.491098,637.363239 C396.491098,643.982495 402.171577,650 409.745549,650 C416.688357,650 423,644.584245 423,637.363239 L423,387.035011 L423,387.035011 L423,387.035011 L423,387.035011 Z" id="Shape" fill="#72CEED" fill-rule="nonzero"></path>
            <path d="M63.010453,381.017505 C61.1184669,377.407002 56.7038328,375 51.6585366,375 C47.2439024,375 42.8292683,377.407002 40.3066202,381.017505 L39.0452962,383.424508 C37.1533101,386.43326 38.4146341,390.645514 40.3066202,393.654267 L61.1184669,428.555799 L141.843206,562.746171 L138.059233,562.746171 L138.059233,562.746171 L34,562.746171 L49.1358885,588.019694 L156.348432,588.019694 L189.142857,641.575492 L189.142857,641.575492 C191.034843,644.584245 194.188153,650 201.756098,650 C208.69338,650 215,644.584245 215,637.363239 C215,634.956236 214.369338,633.150985 213.108014,630.743982 L63.010453,381.017505 Z" id="Shape" fill="#72CEED" fill-rule="nonzero"></path>
        </g>
    </g>
</svg>